<svg xmlns="http://www.w3.org/2000/svg" viewBox="0 0 24 24" fill="none" stroke="currentColor" stroke-width="1.5" stroke-linecap="round" stroke-linejoin="round">
  <path d="M21 11.5a8.38 8.38 0 0 1-.9 3.8 8.5 8.5 0 0 1-7.6 4.7 8.38 8.38 0 0 1-3.8-.9L3 21l1.9-5.7a8.38 8.38 0 0 1-.9-3.8 8.5 8.5 0 0 1 4.7-7.6 8.38 8.38 0 0 1 3.8-.9h.5a8.48 8.48 0 0 1 8 8v.5z"/>
  <path d="M16.5 13.5c-.3-.15-1.7-.85-2-.95-.25-.1-.43-.15-.6.15-.18.3-.7.95-.85 1.1-.15.15-.3.18-.6.03a6.9 6.9 0 0 1-2-1.25 7.5 7.5 0 0 1-1.4-1.75c-.15-.3-.02-.45.13-.6.15-.15.6-.7.75-.95.15-.25.08-.45-.02-.6-.1-.15-.6-1.5-.85-2.05-.22-.53-.44-.46-.6-.46h-.5c-.18 0-.45.06-.68.3-.23.23-.9.87-.9 2.12 0 1.25.9 2.45 1.03 2.62.13.18 1.75 2.67 4.23 3.75.6.25 1.05.4 1.4.5.6.2 1.15.16 1.58.1.48-.07 1.48-.6 1.7-1.18.2-.58.2-1.08.15-1.18-.06-.1-.23-.16-.5-.3z"/>
</svg>